<?xml version="1.0" encoding="utf-8"?>
<!-- Generator: Adobe Illustrator 21.1.0, SVG Export Plug-In . SVG Version: 6.00 Build 0)  -->
<svg version="1.1" id="Layer_1" xmlns="http://www.w3.org/2000/svg" xmlns:xlink="http://www.w3.org/1999/xlink" x="0px" y="0px"
	 viewBox="0 0 480 480" style="enable-background:new 0 0 480 480;" xml:space="preserve">
<style type="text/css">
	.st0{fill:#1E90FF;}
</style>
<path class="st0" d="M265.2,232.7c-3-0.5-6-0.7-8.9-0.7h-32c-30.9,0.1-55.9,25.1-56,56v56c0,8.8,7.2,16,16,16h111.9
	c8.8,0,16-7.2,16-16v-56C312.3,260.5,292.3,237,265.2,232.7z M252.1,248l-11.8,27.6L228.4,248H252.1z M184.3,288
	c0-17.3,11.1-32.7,27.6-37.9l20.3,47.6v46.3h-48V288z M296.2,343.9h-48v-46.4l20.4-47.6c16.5,5.3,27.7,20.6,27.6,38V343.9z"/>
<path class="st0" d="M264.2,280h16v16h-16V280z"/>
<path class="st0" d="M280.2,192v-16c4.4,0,8-3.6,8-8v-8c0-22.1-17.9-40-40-40h-16c-22.1,0-40,17.9-40,40v8c0,4.4,3.6,8,8,8v16
	c0,22.1,17.9,40,40,40C262.3,232,280.2,214.1,280.2,192z M232.2,136.1h16c13.3,0,24,10.7,24,24h-30.1l-14.3-7.2
	c-3.1-1.5-6.8-0.9-9.2,1.5l-5.7,5.7h-4.7C208.3,146.8,219,136.1,232.2,136.1z M240.2,216c-13.2,0-24-10.7-24-24v-16
	c2.1,0,4.2-0.8,5.7-2.3l3.9-3.9l10.8,5.4c1.1,0.6,2.3,0.8,3.6,0.8h24v16C264.2,205.3,253.5,216,240.2,216z"/>
<path class="st0" d="M232.2,63v41.1h16V63c15.6-4,25.8-19,23.7-35c-2-16-15.6-28-31.7-28c-16.1,0-29.7,12-31.7,28
	C206.5,43.9,216.6,58.9,232.2,63z M240.2,16.1c8.8,0,16,7.2,16,16s-7.2,16-16,16c-8.8,0-16-7.2-16-16S231.4,16.1,240.2,16.1z"/>
<path class="st0" d="M125.2,93c0-8.5-3.3-16.6-9.4-22.6c-12.7-12.1-32.6-12.1-45.2,0C59.2,81.7,58,99.8,67.8,112.6
	c9.9,12.8,27.7,16.1,41.6,7.9l29.1,29.1l11.3-11.3l-29.1-29.1C123.6,104.3,125.2,98.7,125.2,93z M81.9,104.3
	c-6.2-6.2-6.2-16.4,0-22.6c6.2-6.2,16.4-6.2,22.6,0c6.2,6.2,6.2,16.4,0,22.6C98.2,110.3,88.2,110.3,81.9,104.3z"/>
<path class="st0" d="M248.2,417v-41.1h-16V417c-15.6,4-25.8,19-23.7,35c2,16,15.6,28,31.7,28c16.1,0,29.7-12,31.7-28
	C274,436.1,263.8,421.1,248.2,417z M240.2,463.9c-8.8,0-16-7.2-16-16c0-8.8,7.2-16,16-16c8.8,0,16,7.2,16,16
	C256.2,456.7,249.1,463.9,240.2,463.9z"/>
<path class="st0" d="M371.1,359.6L342,330.5l-11.3,11.3l29.1,29.1c-8.4,14.3-4.4,32.6,9.1,42.2c13.5,9.6,32.1,7.2,42.8-5.5
	c10.7-12.7,9.9-31.4-1.9-43.1C399.4,354.5,383.7,352.5,371.1,359.6z M398.6,398.3c-6.3,6-16.3,6-22.6,0c-6.2-6.2-6.2-16.4,0-22.6
	c6.2-6.2,16.4-6.2,22.6,0C404.8,381.9,404.8,392.1,398.6,398.3z"/>
<path class="st0" d="M448.1,208c-14.5,0.1-27.2,9.9-30.8,24h-41.1v16h41.1c4.2,16.1,20,26.2,36.3,23.4c16.3-2.8,27.8-17.7,26.4-34.2
	S464.7,208,448.1,208z M448.1,256c-8.8,0-16-7.2-16-16s7.2-16,16-16c8.8,0,16,7.2,16,16S457,256,448.1,256z"/>
<path class="st0" d="M104.3,248v-16H63.2c-4-15.6-19-25.8-35-23.7c-16,2-28,15.6-28,31.7c0,16.1,12,29.7,28,31.7
	c16,2,31-8.1,35-23.7H104.3z M32.3,256c-8.8,0-16-7.2-16-16s7.2-16,16-16c8.8,0,16,7.2,16,16S41.2,256,32.3,256z"/>
<path class="st0" d="M138.5,330.5l-29.1,29.1c-12.6-7.1-28.3-5.1-38.7,4.8c-11.9,11.7-12.8,30.7-2.1,43.5
	c10.7,12.8,29.5,15.2,43.2,5.6c13.6-9.7,17.6-28.2,9-42.6l29.1-29.1L138.5,330.5z M104.5,398.3c-6.3,6-16.3,6-22.6,0
	c-6.2-6.2-6.2-16.4,0-22.6c6.2-6.2,16.4-6.2,22.6,0C110.8,381.9,110.8,392.1,104.5,398.3z"/>
<path class="st0" d="M342,149.5l29.1-29.1c13.9,8.2,31.6,4.8,41.5-7.9c9.8-12.7,8.7-30.8-2.7-42.1c-12.7-12.1-32.6-12.1-45.2,0
	c-10.4,10.3-12.4,26.3-4.9,38.8l-29.1,29.1L342,149.5z M375.9,81.7c6.2-6.2,16.4-6.2,22.6,0c6.2,6.2,6.2,16.4,0,22.6
	c-6.3,6-16.3,6-22.6,0C369.7,98.1,369.7,87.9,375.9,81.7L375.9,81.7z"/>
</svg>
